<?xml version="1.0" encoding="UTF-8" standalone="no"?>
<!-- Created with Inkscape (http://www.inkscape.org/) -->

<svg
   width="152.58089mm"
   height="136.69968mm"
   viewBox="0 0 152.58089 136.69968"
   version="1.1"
   id="svg1"
   xml:space="preserve"
   xmlns:xlink="http://www.w3.org/1999/xlink"
   xmlns="http://www.w3.org/2000/svg"
   xmlns:svg="http://www.w3.org/2000/svg"><defs
     id="defs1"><linearGradient
       id="linearGradient2"><stop
         style="stop-color:#ffffff;stop-opacity:1;"
         offset="0"
         id="stop1" /><stop
         style="stop-color:#9df2a3;stop-opacity:1;"
         offset="0.50236219"
         id="stop2" /></linearGradient><linearGradient
       id="linearGradient58"><stop
         style="stop-color:#000000;stop-opacity:0.1;"
         offset="0.60472441"
         id="stop58" /><stop
         style="stop-color:#000000;stop-opacity:0.02;"
         offset="0.77480316"
         id="stop59" /></linearGradient><linearGradient
       id="linearGradient43"><stop
         style="stop-color:#ffffff;stop-opacity:1;"
         offset="0"
         id="stop42" /><stop
         style="stop-color:#ffffff;stop-opacity:1;"
         offset="0.50236219"
         id="stop43" /></linearGradient><linearGradient
       id="swatch28"><stop
         style="stop-color:#bdfffe;stop-opacity:1;"
         offset="0"
         id="stop30" /><stop
         style="stop-color:#9df2a3;stop-opacity:1;"
         offset="0.50236219"
         id="stop28" /></linearGradient><rect
       x="269.64902"
       y="574.7782"
       width="248.36095"
       height="61.8368"
       id="rect26" /><rect
       x="539.29803"
       y="427.78903"
       width="262.55301"
       height="287.89594"
       id="rect25" /><rect
       x="712.5061"
       y="685.26746"
       width="117.55634"
       height="176.3345"
       id="rect2" /><rect
       x="170.60005"
       y="345.50095"
       width="540.47241"
       height="345.50095"
       id="rect1" /><linearGradient
       xlink:href="#swatch28"
       id="linearGradient32"
       gradientUnits="userSpaceOnUse"
       x1="34.056099"
       y1="154.46979"
       x2="184.54305"
       y2="154.46979" /><linearGradient
       xlink:href="#swatch28"
       id="linearGradient33"
       gradientUnits="userSpaceOnUse"
       x1="34.056099"
       y1="154.46979"
       x2="184.54305"
       y2="154.46979" /><linearGradient
       xlink:href="#swatch28"
       id="linearGradient34"
       gradientUnits="userSpaceOnUse"
       x1="34.056099"
       y1="154.46979"
       x2="184.54305"
       y2="154.46979" /><linearGradient
       xlink:href="#swatch28"
       id="linearGradient35"
       gradientUnits="userSpaceOnUse"
       x1="34.056099"
       y1="154.46979"
       x2="184.54305"
       y2="154.46979" /><linearGradient
       xlink:href="#swatch28"
       id="linearGradient36"
       gradientUnits="userSpaceOnUse"
       x1="34.056099"
       y1="154.46979"
       x2="184.54305"
       y2="154.46979" /><linearGradient
       xlink:href="#swatch28"
       id="linearGradient38"
       gradientUnits="userSpaceOnUse"
       x1="34.056099"
       y1="154.46979"
       x2="184.54305"
       y2="154.46979" /><linearGradient
       xlink:href="#swatch28"
       id="linearGradient39"
       gradientUnits="userSpaceOnUse"
       x1="34.056099"
       y1="154.46979"
       x2="184.54305"
       y2="154.46979" /><linearGradient
       xlink:href="#swatch28"
       id="linearGradient41"
       gradientUnits="userSpaceOnUse"
       x1="34.056099"
       y1="154.46979"
       x2="184.54305"
       y2="154.46979" /><linearGradient
       xlink:href="#swatch28"
       id="linearGradient42"
       gradientUnits="userSpaceOnUse"
       x1="34.056099"
       y1="154.46979"
       x2="184.54305"
       y2="154.46979" /><linearGradient
       xlink:href="#linearGradient58"
       id="linearGradient59"
       x1="21.233652"
       y1="69.593155"
       x2="124.13313"
       y2="69.593155"
       gradientUnits="userSpaceOnUse" /></defs><g
     id="layer1"
     transform="translate(-31.962166,-85.089214)"><text
       xml:space="preserve"
       transform="scale(0.26458333)"
       id="text2"
       style="font-size:16px;line-height:0;letter-spacing:0.52px;writing-mode:lr-tb;direction:ltr;white-space:pre;shape-inside:url(#rect2);fill:#1a1a1a;stroke-width:12.1965;stroke-linecap:square;stroke-miterlimit:4.2;stroke-dasharray:none" /><path
       style="fill:url(#linearGradient32);fill-rule:nonzero;stroke:url(#linearGradient59);stroke-width:4.123;stroke-linecap:square;stroke-miterlimit:4.2;stroke-dasharray:none;stroke-opacity:0.05"
       d="m 71.310343,134.84483 -1.522035,-3.67388 a 31.937572,31.937572 61.759965 0 0 -3.020961,-5.62463 13.513475,13.513475 42.547462 0 0 -3.807234,-3.49449 l -0.594272,-0.40049 a 3.3691177,3.3691177 12.358167 0 0 -2.425002,-0.53131 l -4.60771,0.75126 a 78.396078,78.396078 172.81124 0 1 -5.622949,0.70922 l -1.47416,0.13201 a 18.239459,18.239459 1.3364857 0 1 -4.099158,-0.0956 l -2.068434,-0.28298 a 6.9545597,6.9545597 22.730116 0 1 -3.307352,-1.38554 l -0.745273,-0.57539 a 5.6479881,5.6479881 59.636026 0 1 -2.135871,-3.64575 12.270185,12.270185 92.506504 0 1 0.181869,-4.15468 l 0.160164,-0.81522 a 7.8365733,7.8365733 89.113253 0 0 -0.05044,-3.25873 l -0.291396,-1.27347 a 8.5616882,8.5616882 67.605361 0 0 -1.077407,-2.61468 l -1.112822,-1.78778 a 3.1792091,3.1792091 82.678866 0 1 -0.337032,-2.62326 l 0.306472,-0.986489 c 0.264317,-0.850799 -0.07357,-2.008433 -0.696929,-2.64465 -0.584007,-0.596055 -1.219465,-1.330459 -1.479656,-1.930338 -0.252814,-0.58287 -0.328538,-1.276579 -0.189656,-1.89655 0.07003,-0.312602 0.26325,-0.694341 0.485557,-1.059376 0.462954,-0.760186 0.652361,-1.975146 0.301414,-2.794023 l -0.218003,-0.508675 -3.60345,-2.086205 -3.352566,-2.145645 a 3.2002608,3.2002608 59.878424 0 1 -1.471154,-2.535673 l -0.107315,-2.146274 1.940928,-2.803562 a 59.590836,59.590836 127.1815 0 1 3.124597,-4.119265 l 2.667388,-3.216557 a 14.036061,14.036061 116.30022 0 0 2.875653,-5.818384 l 0.156124,-0.679895 c 0.31326,-1.364196 0.394247,-3.59201 0.240315,-4.983114 -0.03759,-0.339677 -0.07587,-0.707065 -0.113338,-1.097887 -0.442131,-4.612059 -0.55507,-12.221078 0.461568,-16.74069 0.508583,-2.260942 2.613691,-7.936614 5.086792,-12.368182 2.235116,-4.005104 7.83013,-10.017347 12.404935,-12.816565 0.08085,-0.04947 0.16183,-0.09875 0.242933,-0.147836 2.832944,-1.714717 7.602409,-4.208322 10.667562,-5.4602153 0.475421,-0.1941753 0.953563,-0.3814676 1.434287,-0.5612125 3.355235,-1.2545355 9.074651,-2.4456461 12.64362,-2.7696598 2.125556,-0.1929714 4.264829,-0.2765201 6.402228,-0.2679301 3.396201,0.013649 8.923817,0.4337668 12.185787,1.3623077 1.009986,0.2875004 4.021705,1.3282963 6.565767,2.6399594 2.28258,1.1768496 6.28421,3.6973656 8.75782,5.7847446 0.8472,0.714915 1.66116,1.467087 2.43131,2.260362 1.12591,1.159715 2.18062,2.395992 3.15753,3.691561 1.70696,2.263776 3.88707,6.332937 4.89794,8.98133 0.37683,0.987244 0.62915,1.704403 0.62915,1.704403 0,0 -3.19166,-4.133799 -6.48056,-7.777575 -2.10111,-2.327813 -5.87609,-5.496729 -8.45316,-6.845915 -5.54472,-2.786373 -6.51786,-3.228024 -7.502501,-3.63641 -2.877648,-1.193518 -7.817003,-2.40641 -10.919986,-2.689818 -4.213237,-0.384806 -11.238863,0.08116 -15.505916,1.071289 -2.6093,0.60547 -7.188484,2.069166 -10.135964,3.392264 -1.926639,0.864852 -3.789729,1.86305 -5.535222,3.033149 -3.716082,2.491091 -7.01078,5.655994 -9.862069,9.10345 -2.007732,2.427522 -3.844049,5.073918 -5.137507,7.948648 -0.237621,0.528118 -0.586117,1.400635 -0.776923,1.947443 -0.981748,2.813464 -1.455627,5.808598 -1.760706,8.784316 -0.05906,0.576091 -0.145377,1.511603 -0.16267,2.090445 -0.07626,2.552754 0.346912,5.120484 0.251599,7.677418 -0.08576,2.300725 -0.140987,4.63282 -0.663793,6.874999 -0.537241,2.304087 -0.917897,4.459592 -2.512932,6.637934 -1.100252,1.502617 -2.877288,3.970113 -4.034135,5.579838 -0.626733,0.872083 -1.749577,2.195251 -2.508968,2.954642 l -1.469828,1.469826 0.08351,0.278362 a 3.811401,3.811401 49.394972 0 0 2.010457,2.345224 l 6.630174,3.160898 c 0,0 1.865518,1.270685 2.086206,2.275865 0.355848,1.620803 -1.517242,4.741378 -1.517242,4.741378 l 1.991379,3.034491 c 0,0 0.435065,0.806454 0.379311,1.232753 -0.116014,0.887047 -1.422412,2.275864 -1.422412,2.275864 l 1.49423,4.891747 1.089123,6.02493 -0.442057,2.9968 a 4.3168221,4.3168221 73.788845 0 0 1.082839,3.72445 10.567258,10.567258 178.07749 0 0 7.654435,0.49334 l 6.162535,-1.41179 a 15.42975,15.42975 179.98583 0 1 6.883696,-0.002 l 0.712681,0.1629 a 7.3013194,7.3013194 32.107596 0 1 4.074459,2.55666 l 1.109318,1.38664 a 10.247791,10.247791 61.025087 0 1 1.670283,3.01639 15.531276,15.531276 79.646661 0 1 0.836931,4.58109 l 0.02611,0.731 a 36.006187,36.006187 91.359116 0 1 -0.101432,4.27524 z"
       id="path13"
       transform="translate(10.728516,81.536726)" /><path
       id="path15"
       style="fill:url(#linearGradient33);fill-rule:nonzero;stroke:none;stroke-width:4.123;stroke-linecap:square;stroke-miterlimit:4.2;stroke-dasharray:none;stroke-opacity:0"
       d="m 121.2322,30.307961 c 1.08212,3.014333 1.71692,6.188881 1.8774,9.387541 0.30393,6.057928 -1.22966,12.378806 -5.06894,17.047021 4.4e-4,0.0031 8.7e-4,0.0063 10e-4,0.0093 0.4273,0.319754 0.86097,0.630592 1.3131,0.914156 1.96132,1.230082 4.24002,1.921195 6.54741,2.110465 2.30738,0.18927 4.6426,-0.114422 6.86314,-0.769462 2.17033,-0.640229 4.23841,-1.611849 6.43734,-2.145605 0.44313,-0.107564 0.89058,-0.197054 1.341,-0.268201 z m -3.19051,26.443864 c -0.002,-0.0013 -0.003,-0.0023 -0.005,-0.0036 -0.18129,0.220274 -0.36753,0.436868 -0.55914,0.649573 -0.0122,0.0136 -0.0244,0.02674 -0.0367,0.04031 0.29294,-0.253441 0.52416,-0.497949 0.59376,-0.645956 0.006,-0.01228 0.008,-0.02585 0.007,-0.04031 z m -0.60099,0.686263 c -0.33167,0.286944 -0.59832,0.269588 -0.90107,0.396011 -0.92419,0.385927 -1.80021,0.978191 -2.79351,1.10628 -1.09138,0.140735 -2.37281,0.229659 -3.27729,-0.397106 -0.52018,-0.360462 -0.87546,-1.051698 -0.87574,-1.684564 -2.1e-4,-0.459381 0.25432,-0.965606 0.63458,-1.223352 1.42451,-0.965551 3.44657,-0.831065 5.13739,-0.510679 0.60658,0.114939 0.99793,0.500818 1.64827,0.844766 -0.31217,-0.2371 0.17576,-1.119719 -0.14532,-1.344194 -1.1114,-0.776994 -2.52606,-0.923051 -3.8697,-1.106246 -1.0169,-0.138647 -2.70771,0.14415 -3.5871,0.673287 -0.4397,0.264569 -0.82657,0.61906 -1.11672,1.042314 -0.29014,0.423255 -0.48212,0.915354 -0.54002,1.425236 -0.0611,0.538245 0.0281,1.091091 0.24133,1.58905 0.21326,0.497959 0.54909,0.940823 0.96118,1.292428 0.82417,0.703211 1.93742,1.023271 3.01997,0.980301 1.08255,-0.04297 2.13341,-0.429688 3.05459,-0.999938 0.90563,-0.560616 1.69381,-1.294131 2.40916,-2.083594 z m -0.0879,-1.808131 c 0.34139,0.259287 0.34073,0.861502 0.68371,1.11825 10e-4,-0.0017 0.003,-0.0039 0.004,-0.0057 -0.0242,-0.169907 -0.27454,-0.164261 -0.84216,-0.464454 z m 4.6137,-24.307071 4.62685,6.302975 4.62685,6.302974 4.62685,6.302975 4.62685,6.302974 c -0.45042,0.07114 -1.2216,-0.200715 -1.83452,-0.163815 -1.85378,0.11163 -3.61485,0.871273 -5.44979,1.157553 -1.92442,0.30024 -3.87894,0.80491 -5.81412,0.58446 -2.00591,-0.22851 -5.57212,-0.770878 -5.73557,-1.945618 -0.16344,-1.17474 1.27723,-2.973093 1.74822,-4.517553 0.55024,-1.80434 1.0169,-3.647193 1.25057,-5.519043 0.20956,-1.67876 0.34458,-3.395503 0.12971,-5.073593 -0.42884,-3.34912 -1.71978,-6.719949 -2.8019,-9.734289 z m -5.33197,24.307043 v 5.17e-4 h -5.2e-4 v 5.17e-4 5.17e-4 5.16e-4 l 5.2e-4,5.17e-4 c 0.009,0.01419 1.28468,0.01827 1.5438,0.155316 -0.16828,-0.127811 -1.51778,-0.155999 -1.54225,-0.1579 h -5.2e-4 l 0.83277,-0.462937 z"
       transform="translate(10.728516,81.536726)" /><path
       style="fill:url(#linearGradient34);fill-rule:nonzero;stroke:none;stroke-width:4.123;stroke-linecap:square;stroke-miterlimit:4.2;stroke-dasharray:none;stroke-opacity:0"
       d=""
       id="path16"
       transform="translate(10.728516,81.536726)" /><path
       style="fill:url(#linearGradient35);fill-rule:nonzero;stroke:none;stroke-width:4.123;stroke-linecap:square;stroke-miterlimit:4.2;stroke-dasharray:none;stroke-opacity:0"
       d=""
       id="path17"
       transform="translate(10.728516,81.536726)" /><path
       style="fill:url(#linearGradient36);fill-rule:nonzero;stroke:none;stroke-width:4.123;stroke-linecap:square;stroke-miterlimit:4.2;stroke-dasharray:none;stroke-opacity:0"
       d=""
       id="path18"
       transform="translate(10.728516,81.536726)" /><path
       style="fill:url(#linearGradient38);fill-opacity:1;fill-rule:nonzero;stroke:none;stroke-width:4.123;stroke-linecap:square;stroke-miterlimit:4.2;stroke-dasharray:none;stroke-opacity:0"
       d="m 123.80869,48.848653 c -0.28272,1.391306 -1.17215,4.45837 -2.25905,6.472379 -1.0869,2.01401 -2.38225,2.983169 -3.39487,3.571286 -1.01261,0.588117 -1.76439,0.811612 -2.47952,1.0157 -0.71514,0.204087 -1.36847,0.381432 -1.96595,0.47934 -0.59747,0.09791 -1.5607,0.139794 -1.63201,0.111083 -0.0713,-0.02871 0.23263,-0.331591 0.75991,-0.672935 0.52729,-0.341345 1.53525,-0.556734 2.22854,-0.977953 0.66291,-0.402751 1.31743,-1.112469 1.81175,-1.46027 0.49433,-0.347802 0.85656,-0.675714 1.20668,-1.000654 0.35012,-0.32494 0.68808,-0.646867 1.22806,-1.413933 0.53997,-0.767066 1.28192,-1.979214 2.00411,-3.21113 0.7222,-1.231915 1.42464,-2.483577 1.93786,-3.251658 0.51322,-0.768081 0.83721,-1.05256 0.55449,0.338745 z"
       id="path23"
       transform="translate(10.728516,81.536726)" /><path
       style="fill:url(#linearGradient39);fill-opacity:1;fill-rule:nonzero;stroke:none;stroke-width:4.123;stroke-linecap:square;stroke-miterlimit:4.2;stroke-dasharray:none;stroke-opacity:0"
       d="m 110.16229,53.871655 c 0.14648,-0.243287 2.58158,-0.498709 3.86508,-0.339608 1.51755,0.188114 3.2828,1.044584 4.33354,1.505195 1.05074,0.46061 1.61967,0.792486 2.22422,1.128347 0.60455,0.335861 1.2446,0.67564 1.94792,0.979883 0.70331,0.304243 1.46981,0.572912 2.7184,0.873205 1.24858,0.300293 2.97912,0.632178 3.40981,1.015447 0.43068,0.383269 -0.43854,0.817878 -1.88864,0.809975 -1.45011,-0.0079 -3.48092,-0.458314 -5.51579,-1.236702 -2.03488,-0.778388 -3.48675,-1.941792 -5.23505,-2.903772 -0.3448,-0.189723 -0.67059,-0.42033 -1.03634,-0.565644 -1.54474,-0.613751 -4.96963,-1.023039 -4.82315,-1.266326 z"
       id="path24"
       transform="translate(10.728516,81.536726)" /><g
       id="g57"
       style="stroke:none;stroke-opacity:0.08"><path
         style="fill:url(#linearGradient41);fill-opacity:1;fill-rule:nonzero;stroke:none;stroke-width:4.123;stroke-linecap:square;stroke-miterlimit:4.2;stroke-dasharray:none;stroke-opacity:0.08"
         d="m 82.418171,186.03673 c 0,0 4.30627,2.47985 6.626426,3.33524 3.358094,1.23805 6.873342,2.14562 10.429059,2.55359 3.754704,0.43081 7.599504,0.42706 11.337244,-0.13213 2.29959,-0.34403 4.54379,-1.07742 6.69348,-1.9636 2.1772,-0.89752 4.25473,-2.05569 6.21121,-3.36638 2.93047,-1.96319 5.68465,-4.21516 8.20258,-6.68535 1.59352,-1.56329 3.02361,-3.29873 4.32954,-5.10918 1.80406,-2.50103 3.48682,-5.11711 4.81039,-7.90241 1.17467,-2.47194 1.98269,-5.10978 2.7413,-7.73938 0.71845,-2.49039 1.27087,-5.03119 1.7069,-7.58621 0.38643,-2.26445 0.7017,-4.5497 0.80266,-6.84467 0.0848,-1.92682 -0.16665,-5.78366 -0.16665,-5.78366 l 0.18966,-0.18966 c 0,0 1.38418,3.3843 1.75093,5.16473 0.44486,2.15958 0.58111,4.38969 0.52493,6.59389 -0.0991,3.88808 -0.60697,7.78764 -1.51724,11.56897 -0.81446,3.38333 -2.03981,6.67717 -3.50189,9.83511 -1.68306,3.63523 -3.87862,7.01603 -6.02491,10.3985 -1.94937,3.07211 -4.36057,5.84271 -6.21458,8.97329 -1.15252,1.94609 -2.46897,3.87903 -3.03448,6.06896 -0.28668,1.11019 -0.45979,2.33465 -0.14364,3.43681 0.45965,1.60245 1.68767,2.90825 2.82577,4.12639 0.73156,0.78301 1.54815,1.54737 2.52304,1.9922 2.10055,0.95847 6.80491,1.29307 6.80491,1.29307 0,0 -9.76245,0.68212 -13.49084,-1.91166 -1.97748,-1.3757 -3.19913,-3.95925 -3.43877,-6.35624 -0.29991,-2.99988 2.64366,-8.64953 2.64366,-8.64953 l 0.37931,-0.99569 c 0,0 -4.27018,2.98411 -6.63793,4.03017 -2.00997,0.88799 -4.15315,1.51971 -6.3237,1.86204 -3.62003,0.57093 -7.34271,0.644 -10.99047,0.29122 -1.92234,-0.18591 -3.801171,-0.71947 -5.655141,-1.26053 -2.058421,-0.60073 -4.111604,-1.27197 -6.045958,-2.1973 -1.666747,-0.79732 -3.317871,-1.69235 -4.743352,-2.86784 -1.38126,-1.13902 -3.603448,-3.98276 -3.603448,-3.98276 z"
         id="path25" /><path
         style="fill:url(#linearGradient42);fill-opacity:1;fill-rule:nonzero;stroke:none;stroke-width:4.123;stroke-linecap:square;stroke-miterlimit:4.2;stroke-dasharray:none;stroke-opacity:0.08"
         d="m 184.54305,215.04438 c 0,0 -5.6475,1.61399 -8.53407,2.12604 -2.46974,0.43811 -4.97406,0.85236 -7.48189,0.80343 -2.71043,-0.0529 -5.46832,-0.34457 -8.04633,-1.18308 -2.72184,-0.88529 -5.55337,-1.99129 -7.60458,-3.98747 -1.25015,-1.21661 -2.70724,-2.82918 -2.55536,-4.56699 0.24863,-2.84498 3.43198,-4.58443 5.41693,-6.63765 2.58386,-2.67275 5.80488,-4.67483 8.39711,-7.33947 3.1069,-3.19368 5.88659,-6.70584 8.51615,-10.30277 1.59456,-2.18117 3.06524,-4.45939 4.38626,-6.8163 1.4931,-2.66393 2.80448,-5.43303 3.98436,-8.24972 0.58019,-1.38506 1.1407,-2.78815 1.51694,-4.24191 0.67605,-2.61223 1.24129,-5.2902 1.31407,-7.98751 0.0542,-2.00832 -0.22266,-4.02962 -0.65629,-5.99132 -0.14841,-0.67139 -0.66062,-1.95414 -0.66062,-1.95414 0,0 -0.21216,4.74666 -0.69689,7.06185 -0.98038,4.68257 -2.49056,9.27919 -4.43855,13.64874 -1.45596,3.26585 -3.36687,6.32428 -5.37023,9.28604 -2.61622,3.8678 -5.44231,7.62484 -8.6454,11.02259 -2.93535,3.11374 -6.13744,6.01312 -9.6168,8.50425 -3.0206,2.16266 -6.20714,4.20352 -9.67928,5.52463 -2.13557,0.81256 -4.42597,1.27443 -6.70633,1.4189 -1.01207,0.0641 -2.05757,0.0315 -3.03208,-0.24907 -1.68896,-0.48628 -3.54687,-1.08526 -4.67998,-2.4288 -1.11692,-1.32433 -1.4915,-3.22077 -1.58151,-4.95088 -0.13824,-2.65721 1.62683,-7.81489 1.62683,-7.81489 0,0 -4.44474,12.10517 -1.35559,16.79645 1.44492,2.1943 4.86483,2.16415 7.46772,2.52144 2.31737,0.31809 7.00752,-0.3703 7.00752,-0.3703 l 1.05328,-0.16092 c 0,0 1.42701,3.63533 2.51566,5.23701 0.84565,1.24418 1.88184,2.383 3.06343,3.3141 1.27078,1.00139 2.74924,1.73149 4.23589,2.36988 1.87024,0.80312 3.83718,1.40381 5.83142,1.81103 1.69303,0.34571 3.42961,0.56734 5.15709,0.52648 3.00985,-0.0712 6.0288,-0.54361 8.93195,-1.34111 2.73689,-0.75182 7.88467,-3.21471 7.88467,-3.21471 z"
         id="path25-5" /></g><text
       xml:space="preserve"
       transform="matrix(0.49303367,0,0,0.82744632,-202.27623,-201.74839)"
       id="text25"
       style="font-style:normal;font-variant:normal;font-weight:normal;font-stretch:normal;font-size:106.667px;line-height:0;font-family:'Bradley Hand ITC';-inkscape-font-specification:'Bradley Hand ITC';letter-spacing:0.52px;writing-mode:lr-tb;direction:ltr;white-space:pre;shape-inside:url(#rect25);shape-padding:20.1282;fill:#1a1a1a;fill-opacity:1;stroke-width:15.583;stroke-linecap:square;stroke-miterlimit:4.2;stroke-dasharray:none" /></g></svg>
